#!OML:ASF F:\VICON\USERDATA\INSTALL\rory3\rory3.ASF
:FULLY-SPECIFIED
:DEGREES
77
root -6.172262579321156 17.999960321168587 -1.9024634835446266 -177.45771533746338 -8.486192177317434 -184.5715619817011
lfemur -28.150681869509555 -21.98809875922865 -15.798072188781953
ltibia 28.001516502549155
lfoot 39.85635400619692 -47.192200460001274
ltoes 61.215258246404346
rfemur 18.073111730505087 -8.601418903110869 20.973181928917292
rtibia 18.530752904691724
rfoot 29.340331587421517 -40.214224430141904
rtoes 29.424241041647154
lowerback -6.880925176612101 13.100996161834999 17.25292895719457
upperback -13.77166038670451 21.18408746485874 4.437915186393364
thorax -8.643518754311131 10.734422804653345 -3.1653654678350396
lowerneck -6.518370467038592 -24.58848497398474 -3.1541317304545546
upperneck 3.684106881791262 -34.44982925750949 8.708632683214834
head 3.352732723687465 -16.739292406624273 0.17440979449471716
lclavicle -7.082126849209046e-15 -5.19827719451322e-15
lhumerus 61.5982784554725 22.66616396522611 72.12026051431403
lradius 67.45395577869385
lwrist 35.24571425228161
lhand -22.24459647702303 13.678592375706247
lfingers 7.125020000000003
lthumb -175.82755392327067 397.6155820571875
rclavicle -7.082126849209046e-15 -5.19827719451322e-15
rhumerus 119.03484049832569 36.22346000442055 -48.537652678085685
rradius 53.77063688744895
rwrist 9.583804704713682
rhand -28.38747858527381 20.69586418491813
rfingers 7.125020000000003
rthumb -1.7735978904753047 -8.928033504845358
78
root -6.145620962276854 17.985408038965215 -2.0525980052181634 -176.84128404976215 -10.647568090910774 -183.82029370325176
lfemur -28.95726434500242 -23.02395145983388 -14.738065091415852
ltibia 29.42661920344279
lfoot 42.101567579867144 -47.01695556123816
ltoes 63.66504058425801
rfemur 19.559769664082584 -9.033792888459582 22.172132839965524
rtibia 16.188805148953787
rfoot 32.34312116653869 -39.30627391981561
rtoes 28.969994310330023
lowerback -7.5830806881721795 14.331705876646254 17.09276099921548
upperback -14.6329613383643 21.338082357695946 3.4874713681692744
thorax -8.803015631785527 10.170268322766942 -3.855573171832421
lowerneck -6.386435088186621 -24.356569414355796 -3.7360229822919964
upperneck 3.1592017728646677 -34.117315279669384 8.838874014892358
head 3.3144802971738017 -16.626703864176903 0.29703056434856756
lclavicle -6.774613270356137e-15 -4.982992388692267e-15
lhumerus 64.71448714982014 25.627042405474583 70.31212632360108
lradius 69.8238651728198
lwrist 33.280947841320405
lhand -23.13192071174373 13.370593077007705
lfingers 7.125020000000003
lthumb -176.68219575558902 398.7189010541494
rclavicle -6.774613270356137e-15 -4.982992388692267e-15
rhumerus 122.1265117841007 34.85263408265498 -47.87280982147416
rradius 57.98576880532211
rwrist 10.705384088957697
rhand -31.560952069519292 21.707302929711364
rfingers 7.125020000000003
rthumb -4.835106725201511 -7.8887605625028385
79
root -6.129917479443298 17.96499113947831 -2.1986907138861786 -176.34772102633946 -12.108109391072958 -183.24325370073484
lfemur -29.513789381540008 -23.808789611617488 -13.945527775077824
ltibia 30.720449097110055
lfoot 43.80875738321622 -46.77012981836327
ltoes 65.38253304758919
rfemur 20.988695842928824 -9.490424963806412 22.981556382553634
rtibia 14.136477607229855
rfoot 35.02949638058278 -38.09264408713418
rtoes 28.4399007282845
lowerback -8.194780802940478 15.78209744315382 16.926292558410772
upperback -15.337289020870639 21.420530887112246 2.7101030460836752
thorax -8.866217945690636 9.41725001411098 -4.357276331620656
lowerneck -6.237876769877035 -24.23527374308987 -4.177632155890982
upperneck 3.152633530597578 -33.88192200030487 8.821672252512911
head 3.370808403504638 -16.557254149447374 0.3662489416538992
lclavicle -6.351201428602252e-15 -4.685644674097183e-15
lhumerus 67.08315340492791 28.647079761922463 69.24833718305138
lradius 72.34510556718186
lwrist 31.46367939037694
lhand -24.281180322535306 13.614505862543062
lfingers 7.125020000000003
lthumb -177.78960624038984 394.139865982409
rclavicle -6.351201428602251e-15 -4.685644674097183e-15
rhumerus 124.84820915272034 33.70522428217954 -47.14012614587598
rradius 61.68185825713298
rwrist 11.618471824226333
rhand -34.771974205242046 22.49978243663716
rfingers 7.125020000000003
rthumb -7.93261861469057 -7.061250015566431
80
root -6.122692924448176 17.94333180061175 -2.3568387046426387 -177.41018898233386 -13.558750817975017 -184.32956172937634
lfemur -30.233520088254558 -24.587623550267672 -13.52512310059496
ltibia 31.773277521314238
lfoot 44.96288444772425 -47.02143010515779
ltoes 66.70938955791499
rfemur 22.198883408427122 -9.927609093252498 23.379458681664353
rtibia 12.41790966982375
rfoot 37.46844079881383 -36.82580176529245
rtoes 27.81966452946468
lowerback -8.832290043543878 17.075801823370973 16.730351921449262
upperback -15.947690716128761 21.411986964423345 2.0348648597423113
thorax -8.904193426054853 8.69134065324721 -4.778797111160591
lowerneck -6.289389431890095 -24.33956394669769 -4.590949875015997
upperneck 3.342873856068117 -33.89874995666338 8.637268639601519
head 3.441528844488867 -16.582149164596448 0.3702328586672621
lclavicle -6.3798778927313964e-15 -4.700576374756701e-15
lhumerus 68.73567690399338 31.369428378185688 68.6660671755506
lradius 74.29613595445457
lwrist 29.060466452023277
lhand -25.681090086741563 13.678388877000124
lfingers 7.125020000000003
lthumb -179.1366554452355 396.5319288191196
rclavicle -6.3798778927313964e-15 -4.700576374756702e-15
rhumerus 127.07116226084628 32.58882040127851 -46.321582619254464
rradius 64.52091755939375
rwrist 12.315900033122919
rhand -37.90370742628824 23.457302908375702
rfingers 7.125020000000003
rthumb -10.952442950242727 -6.048324866526096
81
root -6.121671183280082 17.921736042534583 -2.501226982709109 -178.19721082797116 -14.681594275083441 -185.19258744607146
lfemur -30.71687962166308 -25.14054751991198 -13.441261887978849
ltibia 32.50925834116047
lfoot 45.852330001728475 -47.47174713588015
ltoes 67.48808832025738
rfemur 23.213984422175773 -10.339923615784018 23.43886439069484
rtibia 11.032377883560963
rfoot 39.471488645681774 -35.403944181275996
rtoes 27.13419617184491
lowerback -9.517926379632701 17.94306067894515 16.467244696571775
upperback -16.446412037269035 21.39232655110323 1.4275645150737313
thorax -8.851753406390717 8.21862392354499 -5.136406992048576
lowerneck -6.386769055091763 -24.541340095223372 -4.952836062980149
upperneck 3.7668974031449416 -34.009950006913215 8.463968590171948
head 3.5955730792004283 -16.622917644643035 0.3497056674358394
lclavicle -6.481134262711437e-15 -4.773981809271324e-15
lhumerus 70.09504039638419 33.35182795986401 68.03396411852039
lradius 75.7492303274245
lwrist 26.170103185635135
lhand -26.906092064309192 13.794669081508122
lfingers 7.125020000000003
lthumb -180.3164754948786 392.07388659531296
rclavicle -6.481134262711437e-15 -4.7739818092713244e-15
rhumerus 128.31760243951808 31.63283082916699 -45.95675951558735
rradius 66.71859000562841
rwrist 12.50628145747297
rhand -41.06549281961618 24.824712366871125
rfingers 7.125020000000003
rthumb -13.998320592617436 -4.573613243597053
82
root -6.127323424262889 17.902512707325766 -2.60186311204166 -178.45493197565258 -15.295346656643055 -185.65721985842515
lfemur -31.071725103149323 -25.340206171654877 -13.464536359933131
ltibia 33.02185634235388
lfoot 46.89027651900672 -47.726136647289806
ltoes 67.88905981712536
rfemur 23.829861016111796 -10.607181279587799 23.432147489727537
rtibia 10.02826849289427
rfoot 40.67973629267755 -34.12170852957876
rtoes 26.44530632617357
lowerback -10.058235750582323 18.442247161910977 16.235839438444078
upperback -16.712798128615127 21.473056542821315 0.9005778480379021
thorax -8.698362780307658 8.050375133564954 -5.475245400506326
lowerneck -6.551248687655576 -24.671337774704266 -5.259870057050181
upperneck 4.297853238414207 -34.05639447172557 8.31567263290182
head 3.806828888409656 -16.630987332162796 0.2951974695945805
lclavicle -6.428111719688474e-15 -4.735000445347135e-15
lhumerus 71.09795247327534 34.83951398298698 67.84317808390816
lradius 76.48928396630615
lwrist 23.33691659882649
lhand -28.01362743549708 13.949232173776448
lfingers 7.125020000000003
lthumb -181.38327457727328 386.32344401039006
rclavicle -6.428111719688474e-15 -4.735000445347135e-15
rhumerus 128.8539851301707 30.892100449235414 -46.018850453971424
rradius 68.28598571080596
rwrist 12.540587752825445
rhand -43.73443386895329 26.331626281369566
rfingers 7.125020000000003
rthumb -16.56681319904077 -2.9381003626807827
83
root -6.13210898594197 17.88825406678034 -2.6934553912756996 -179.0210861952184 -15.894213190550445 -186.4452576567905
lfemur -31.29678352884976 -25.305014782892968 -13.721082019297405
ltibia 33.28002574526854
lfoot 48.193622235225035 -47.98905200539983
ltoes 68.58383119868773
rfemur 24.32008812244484 -10.81863755126141 23.274343807876132
rtibia 9.421055951372349
rfoot 41.922201510978304 -32.87261424173199
rtoes 25.857455793538424
lowerback -10.679934025878367 18.51641964160578 16.065888989709357
upperback -16.89989920432717 21.592070823280583 0.4505416652894507
thorax -8.516360419643833 8.180561443294529 -5.749507658669886
lowerneck -6.793333652804673 -24.767339053462916 -5.477700602191193
upperneck 4.845738907863581 -34.14856174095826 8.128016971819502
head 3.9912520874537685 -16.669613738518212 0.20857237483016444
lclavicle -6.430513617213861e-15 -4.73758095240623e-15
lhumerus 71.57286207366316 35.785701693767855 67.24717271518605
lradius 76.80714321191117
lwrist 20.69057307804653
lhand -28.884599894959052 14.021367221686521
lfingers 7.125020000000003
lthumb -182.22178676973357 389.8578261766786
rclavicle -6.4305136172138614e-15 -4.73758095240623e-15
rhumerus 128.74755781539648 30.711502459788477 -46.233990385623045
rradius 69.35857407446879
rwrist 12.065366695713724
rhand -46.07651457256095 28.053349246582357
rfingers 7.125020000000003
rthumb -18.818772351583412 -1.069083964891309
